<?xml version="1.0" encoding="utf-8"?>
<!DOCTYPE svg PUBLIC "-//W3C//DTD SVG 1.1//EN" "http://www.w3.org/Graphics/SVG/1.1/DTD/svg11.dtd">
<svg version="1.1" id="图形" xmlns="http://www.w3.org/2000/svg" xmlns:xlink="http://www.w3.org/1999/xlink" x="0px" y="0px" width="1028px" height="1024px" viewBox="0 0 1028 1024" enable-background="new 0 0 1028 1024" xml:space="preserve">
  <path fill="#669933" d="M513.943229-36.131997c5.329333 0 10.658667-1.279971 15.476012-3.909729l236.70153-127.415286c14.219313-7.633281 32.534533-6.632577 45.892775 2.490125 13.078975 9.006341 19.68828 24.13327 17.081794 39.399832l-46.148769 275.542829c-1.745415 10.402673 1.652326 21.038067 9.169246 28.554987l198.977296 198.581669c10.891389 10.868117 14.568396 26.483762 9.63469 40.819436-5.003523 14.568396-18.035954 25.133974-33.907593 27.484466l-271.446922 40.377264c-10.728483 1.582509-19.944274 8.377991-24.645258 18.129043L552.668167 748.885798c-6.935115 14.405491-22.131861 23.691098-38.724938 23.691098s-31.813095-9.285607-38.794755-23.691098l-117.966773-244.916616c-4.677712-9.774323-13.940047-16.569805-24.645258-18.152315L61.066248 445.416331c-15.662189-2.32722-28.950615-13.12552-33.930865-27.554283-4.910434-14.265858-1.210154-29.85823 9.657962-40.703075l198.954024-198.628213c7.493648-7.493648 10.914661-18.129043 9.169246-28.554987L198.791118-125.497239c-2.606486-15.313107 3.979546-30.463308 17.174882-39.539465 13.12552-9.006341 31.44074-10.100134 45.916047-2.32722l236.585169 127.322197C503.284562-37.411968 508.590623-36.131997 513.943229-36.131997z" transform="translate(0, 812) scale(1, -1)"/>
</svg>
