<?xml version="1.0" encoding="utf-8"?>
<!DOCTYPE svg PUBLIC "-//W3C//DTD SVG 1.1//EN" "http://www.w3.org/Graphics/SVG/1.1/DTD/svg11.dtd">
<svg version="1.1" id="图形" xmlns="http://www.w3.org/2000/svg" xmlns:xlink="http://www.w3.org/1999/xlink" x="0px" y="0px" width="1028px" height="1024px" viewBox="0 0 1028 1024" enable-background="new 0 0 1028 1024" xml:space="preserve">
  <path fill="#669933" d="M786.902843-195.849094c-11.193927 0-22.178405 2.722847-31.766551 7.889275l-236.724802 127.415286c-2.815936 1.535965-6.236949 1.466148-8.750347 0.093089l-236.724802-127.415286c-21.526783-11.496466-50.198132-10.030317-70.095861 3.607191-20.805345 14.312402-31.114929 38.306038-26.972478 62.648758l46.102225 275.426468c0.488716 3.002114-0.488716 6.074044-2.653031 8.238358l-198.930752 198.604941c-17.221427 17.174882-23.039476 41.983046-15.220018 64.743256 7.796186 22.55076 28.415354 39.423104 52.525352 43.007023l271.470194 40.377264c3.095202 0.465444 5.724961 2.397036 7.074748 5.1897l117.990046 244.96316c10.868117 22.411127 34.326493 36.83989 59.763005 36.83989 25.483057 0 48.918161-14.475307 59.693189-36.863162l118.013318-244.939888c1.37306-2.815936 4.002818-4.770801 7.09802-5.212972l271.470194-40.377264c24.528897-3.630463 44.636076-20.083907 52.502079-42.937206 7.842731-22.806754 2.001409-47.661462-15.220018-64.859617l-198.977296-198.581669c-2.141042-2.164314-3.141747-5.236245-2.629758-8.215086l46.148769-275.566101c4.119179-24.249631-6.190405-48.173451-26.832845-62.416036C814.154587-191.683371 800.563624-195.849094 786.902843-195.849094zM513.943229-12.859799c9.332152 0 18.547942-2.350492 26.646667-6.77221l236.561896-127.322197c6.330038-3.397741 15.685462-2.885753 21.712961 1.210154 5.631872 3.863185 8.377991 9.983773 7.284198 16.313811l-46.148769 275.589373c-2.978841 17.77996 2.86248 36.048635 15.662189 48.848344l199.000568 198.604941c4.561351 4.561351 6.097316 10.844844 4.072635 16.779255-2.187587 6.35331-8.052181 10.961205-15.289834 12.031727l-271.493466 40.377264c-18.361765 2.722847-34.140315 14.358946-42.192496 31.068385L531.699916 738.785664c-6.050772 12.590259-29.509148 12.590259-35.606463-0.046544l-117.943501-244.870071c-8.005636-16.709438-23.784187-28.345538-42.192496-31.068385L64.487262 422.376855c-7.051476-1.047249-13.195336-5.911138-15.359651-12.124815-2.001409-5.81805-0.488716-12.054999 4.095907-16.61635l198.954024-198.628213c12.799709-12.822981 18.664303-31.091657 15.662189-48.894889L221.737506-129.337151c-1.093793-6.423127 1.675598-12.590259 7.423831-16.546533 5.841322-4.002818 15.173473-4.491534 21.712961-0.977432l236.561896 127.322197C495.395286-15.210291 504.611077-12.859799 513.943229-12.859799z" transform="translate(0, 812) scale(1, -1)"/>
</svg>
